<?xml version="1.0" encoding="UTF-8"?>
<!DOCTYPE svg PUBLIC "-//W3C//DTD SVG 1.1//EN" "http://www.w3.org/Graphics/SVG/1.1/DTD/svg11.dtd">
<!-- Creator: CorelDRAW 2018 (64-Bit Evaluation Version) -->
<svg xmlns="http://www.w3.org/2000/svg" xml:space="preserve" width="1270mm" height="1016mm" version="1.1" style="shape-rendering:geometricPrecision; text-rendering:geometricPrecision; image-rendering:optimizeQuality; fill-rule:evenodd; clip-rule:evenodd"
viewBox="0 0 127000 101600"
 xmlns:xlink="http://www.w3.org/1999/xlink">
 <defs>
  <style type="text/css">
   <![CDATA[
    .fil1 {fill:#3B358A}
    .fil0 {fill:#FF422A}
    .fil2 {fill:#3B358A;fill-rule:nonzero}
   ]]>
  </style>
 </defs>
 <g id="Layer_x0020_1">
  <metadata id="CorelCorpID_0Corel-Layer"/>
  <path class="fil0" d="M63500.01 13530.35c11691.99,0 21170.22,9478.22 21170.22,21170.22 0,11691.96 -9478.23,21170.2 -21170.22,21170.2 -11958.77,0 -21170.21,-9612.04 -21170.21,-21483.68l0 -26251.37c0,-3318.24 2714.93,-6033.16 6033.18,-6033.16l6931.57 0c3318.25,0 6033.18,2714.92 6033.18,6033.16l0 5504.82c714.2,-72.8 1438.87,-110.19 2172.28,-110.19zm-12992.2 -5839.97l3211.59 0c1537.44,0 2795.35,1257.9 2795.35,2795.33l0 9848.92c2106.02,-1040.86 4477.05,-1626.74 6985.26,-1626.74 8719.22,0 15787.53,7068.32 15787.53,15787.52 0,8719.22 -7068.31,15787.54 -15787.53,15787.54 -7798.55,0 -15787.52,-6683.66 -15787.52,-14667.81l0 -1119.73 0 -24009.7c0,-1537.43 1257.89,-2795.33 2795.32,-2795.33z"/>
  <path class="fil1" d="M63500.01 27741.47c3673.63,0 6651.72,2978.08 6651.72,6651.71 0,3673.64 -2978.09,6651.73 -6651.72,6651.73 -3673.63,0 -6651.71,-2978.09 -6651.71,-6651.73 0,-3673.63 2978.08,-6651.71 6651.71,-6651.71z"/>
  <path class="fil2" d="M2758.98 83818.82l9997.67 0c3644.98,0 6248.53,-1952.66 6248.53,-4816.58 0,-1978.71 -1223.66,-3671.02 -3306.51,-4556.23 1562.14,-755.03 2473.39,-2265.1 2473.39,-4009.5 0,-2603.53 -2369.24,-4504.15 -5779.91,-4504.15l-9633.17 0 0 17886.46zm5024.87 -10934.96l0 -2707.69 3384.63 0c1041.41,0 1796.44,572.79 1796.44,1353.86 0,781.06 -755.03,1353.83 -1796.44,1353.83l-3384.63 0zm0 6691.16l0 -2863.92 4139.66 0c1093.48,0 1874.55,598.82 1874.55,1431.96 0,833.14 -781.07,1431.96 -1874.55,1431.96l-4139.66 0zm29628.5 4243.8l-4269.85 -6066.29c2186.99,-1015.4 3540.86,-3020.13 3540.86,-5571.62 0,-3671.02 -2837.89,-6248.55 -6847.37,-6248.55l-8565.7 0 0 17886.46 5050.9 0 0 -5389.37 1562.13 0 3775.16 5389.37 5753.87 0zm-11091.16 -13304.19l3098.22 0c1197.65,0 2056.81,702.97 2056.81,1666.28 0,963.32 -859.16,1666.28 -2056.81,1666.28l-3098.22 0 0 -3332.56zm13200.04 13304.19l5050.9 0 0 -17886.46 -5050.9 0 0 17886.46zm13304.19 -4504.15l0 -13382.31 -5050.91 0 0 17886.46 13382.3 0 0 -4504.15 -8331.39 0zm15543.23 0l0 -13382.31 -5050.9 0 0 17886.46 13382.31 0 0 -4504.15 -8331.41 0zm10596.49 4504.15l5050.91 0 0 -17886.46 -5050.91 0 0 17886.46zm8253.28 0l5050.9 0 0 -4738.49 1848.53 -2030.77 4608.3 6769.26 6040.26 0 -7133.76 -10414.23 6613.05 -7472.23 -5962.15 0 -6014.23 7055.65 0 -7055.65 -5050.9 0 0 17886.46zm27285.31 312.43c5285.22,0 9737.31,-4243.8 9737.31,-9268.66 0,-5024.88 -4452.09,-9242.64 -9737.31,-9242.64 -5285.24,0 -9737.32,4217.76 -9737.32,9242.64 0,5024.86 4452.08,9268.66 9737.32,9268.66zm0 -4582.27c-2447.35,0 -4530.21,-2134.91 -4530.21,-4686.39 0,-2525.46 2082.86,-4660.38 4530.21,-4660.38 2447.33,0 4530.19,2134.92 4530.19,4660.38 0,2551.48 -2082.86,4686.39 -4530.19,4686.39z"/>
  <path class="fil2" d="M4221.61 98702.19c0,301.03 210.01,456.43 631.44,467.64l0 268.81 -2087.52 0 0 -268.81c404.63,-11.21 607.64,-166.61 607.64,-467.64l0 -4348.66c0,-301.01 -203.01,-456.43 -607.64,-467.62l0 -268.82 2087.52 0 0 268.82c-421.43,11.19 -631.44,166.61 -631.44,467.62l0 4348.66zm2914.93 -3290.19l0 3290.19c0,301.03 278.62,456.43 837.26,467.64l0 268.81 -1776.71 0 0 -268.81c267.41,-5.61 401.83,-161.02 401.83,-467.64l0 -3946.84c0,-574.03 -134.42,-863.85 -401.83,-869.44l0 -268.82 754.64 0 3444.22 4190.46 0 -3454.02c0,-301.01 -267.43,-456.43 -803.65,-467.62l0 -268.82 1775.29 0 0 268.82c-295.41,5.59 -442.42,161.01 -442.42,467.62l0 5085.11 -329.03 0 -3459.6 -4026.64zm6504.75 680.43c-383.64,-284.21 -592.25,-642.62 -624.45,-1073.85 0,-399.02 161.02,-743.44 483.04,-1033.26 315.02,-284.23 771.45,-427.03 1367.87,-427.03 590.84,0 1072.48,169.41 1443.5,509.62l0 1083.67 -278.62 0c-109.21,-449.43 -257.62,-757.44 -442.42,-926.85 -191.82,-169.41 -418.63,-254.82 -681.85,-254.82 -338.82,0 -585.23,85.41 -737.83,254.82 -158.22,175.01 -238.03,385.02 -238.03,631.44 16.81,273.02 309.42,562.84 877.86,869.45 541.82,288.41 960.45,546.03 1255.87,770.05 443.82,350.02 684.64,803.65 722.44,1360.87 0,481.64 -169.41,875.07 -506.84,1181.68 -350.01,306.62 -865.23,459.22 -1549.88,459.22 -798.05,0 -1402.88,-226.8 -1813.11,-681.83l0 -1443.48 410.23 0c105.01,737.83 271.62,1211.07 501.22,1418.28 224.02,208.59 505.44,312.21 844.26,312.21 404.62,0 702.84,-85.41 894.65,-254.81 180.61,-158.21 275.81,-425.63 287.02,-803.65 -28,-459.24 -341.62,-855.45 -943.64,-1188.66 -590.86,-323.43 -1015.08,-576.85 -1271.29,-763.07zm8810.68 -2475.34l0 1545.69 -378.02 0c0,-733.64 -247.81,-1100.47 -742.03,-1100.47l-610.45 0 0 4639.88c0,306.62 200.21,462.03 599.24,467.64l0 268.81 -2046.92 0 0 -268.81c399.02,-5.61 599.23,-161.02 599.23,-467.64l0 -4639.88 -602.03 0c-488.63,0 -733.66,366.83 -733.66,1100.47l-378.02 0 0 -1545.69 4292.66 0zm2713.31 5085.1c0,301.03 210.01,456.43 631.44,467.64l0 268.81 -2087.53 0 0 -268.81c404.64,-11.21 607.65,-166.61 607.65,-467.64l0 -4348.66c0,-301.01 -203.01,-456.43 -607.65,-467.62l0 -268.82 2087.53 0 0 268.82c-421.43,11.19 -631.44,166.61 -631.44,467.62l0 4348.66zm6199.53 -5085.1l0 1545.69 -378.02 0c0,-733.64 -247.82,-1100.47 -742.04,-1100.47l-610.44 0 0 4639.88c0,306.62 200.21,462.03 599.23,467.64l0 268.81 -2046.92 0 0 -268.81c399.03,-5.61 599.23,-161.02 599.23,-467.64l0 -4639.88 -602.03 0c-488.63,0 -733.65,366.83 -733.65,1100.47l-378.02 0 0 -1545.69 4292.66 0zm1730.46 744.85c0,-306.62 -203.02,-464.84 -607.64,-476.03l0 -268.82 2087.52 0 0 268.82c-421.42,11.19 -631.44,303.82 -631.44,877.84l0 2513.16c0,1121.47 511.05,1682.9 1531.7,1682.9 973.06,0 1458.88,-553.03 1458.88,-1659.09l0 -2536.97c0,-574.02 -203.01,-866.65 -607.63,-877.84l0 -268.82 1776.71 0 0 268.82c-427.03,5.59 -639.84,163.81 -639.84,476.03l0 3026.98c0,607.64 -180.61,1113.07 -540.43,1517.68 -361.23,393.43 -918.46,590.84 -1673.1,590.84 -758.84,0 -1307.69,-197.41 -1646.5,-590.84 -338.82,-404.61 -508.23,-897.45 -508.23,-1477.08l0 -3067.58zm10447.38 -744.85l0 1545.69 -378.02 0c0,-733.64 -247.82,-1100.47 -742.03,-1100.47l-610.45 0 0 4639.88c0,306.62 200.21,462.03 599.24,467.64l0 268.81 -2046.93 0 0 -268.81c399.03,-5.61 599.23,-161.02 599.23,-467.64l0 -4639.88 -602.02 0c-488.63,0 -733.66,366.83 -733.66,1100.47l-378.02 0 0 -1545.69 4292.66 0zm2713.31 3032.58l0 2007.73c0,224 127.42,336.02 383.64,336.02l1176.06 0c735.05,0 1103.27,-366.83 1103.27,-1099.06l378.02 0 0 1544.28 -4497.08 0 0 -270.21c404.64,-11.21 607.65,-166.61 607.65,-467.62l0 -4345.87c0,-301.02 -203.01,-456.44 -607.65,-467.64l0 -270.21 4236.67 0 0 1544.3 -378.02 0c0,-732.25 -378.02,-1099.08 -1135.48,-1099.08l-1267.08 0 0 2142.14 1331.5 0c299.61,0 452.23,-147.01 457.81,-442.42l319.22 0 0 1289.48 -319.22 0c-5.58,-267.43 -158.2,-401.84 -457.81,-401.84l-1331.5 0zm12021.07 -89.6c0,880.66 -221.2,1589.09 -665.03,2125.33 -431.22,541.83 -1085.07,812.04 -1961.52,812.04 -912.86,0 -1591.89,-270.21 -2034.31,-812.04 -443.82,-536.24 -665.04,-1244.67 -665.04,-2125.33 0,-912.86 218.4,-1642.3 656.63,-2189.73 442.42,-541.84 1096.28,-812.05 1961.53,-812.05 924.05,0 1608.68,270.21 2051.1,812.05 438.24,547.43 656.64,1276.87 656.64,2189.73zm-2626.55 2576.16c526.43,0 932.46,-224.02 1216.68,-672.05 289.82,-453.62 435.43,-1087.87 435.43,-1902.71 -16.81,-809.25 -180.62,-1443.49 -492.84,-1902.72 -317.81,-459.22 -730.83,-688.84 -1240.46,-688.84 -520.85,0 -922.67,224.02 -1208.29,672.04 -289.8,453.63 -435.43,1093.46 -435.43,1919.52 16.81,798.05 183.42,1423.89 501.24,1877.51 317.81,464.84 725.24,697.25 1223.67,697.25zm5573.7 -2486.56l0 1846.72c0,438.23 212.82,662.23 639.83,673.44l0 268.81 -2053.92 0 0 -268.81c376.62,-11.21 565.63,-166.61 565.63,-467.64l0 -4347.25c0,-305.22 -189.01,-462.02 -565.63,-467.64l0 -270.21 3900.64 0 0 1544.3 -378.03 0c0,-732.25 -245.01,-1099.08 -735.04,-1099.08l-1373.48 0 0 2142.14 1257.28 0c303.81,0 459.22,-147.01 464.82,-442.42l319.22 0 0 1289.48 -319.22 0c-5.6,-267.43 -161.01,-401.84 -464.82,-401.84l-1257.28 0zm6825.37 -3032.58l2338.14 4742.08 2077.72 -4742.08 1099.07 0 0 268.82c-267.43,5.59 -401.81,295.41 -401.81,869.44l0 3946.84c0,306.62 134.38,462.03 401.81,467.64l0 268.81 -1684.3 0 0 -268.81c256.22,-11.21 401.81,-147.02 434.03,-410.24l0 -3297.19 -1822.92 3976.24 -558.63 0 -1969.93 -3944.04 0 3207.59c0,301.03 131.62,456.43 393.43,467.64l0 268.81 -1332.87 0 0 -268.81c267.41,-5.61 401.82,-161.02 401.82,-467.64l0 -3946.84c0,-574.03 -134.41,-863.85 -401.82,-869.44l0 -268.82 1026.26 0zm7332.19 744.85c0,-306.62 -203.03,-464.84 -607.65,-476.03l0 -268.82 2087.53 0 0 268.82c-421.41,11.19 -631.44,303.82 -631.44,877.84l0 2513.16c0,1121.47 511.04,1682.9 1531.71,1682.9 973.04,0 1458.88,-553.03 1458.88,-1659.09l0 -2536.97c0,-574.02 -203.02,-866.65 -607.64,-877.84l0 -268.82 1776.71 0 0 268.82c-427.03,5.59 -639.85,163.81 -639.85,476.03l0 3026.98c0,607.64 -180.61,1113.07 -540.42,1517.68 -361.23,393.43 -918.46,590.84 -1673.1,590.84 -758.84,0 -1307.69,-197.41 -1646.51,-590.84 -338.81,-404.61 -508.22,-897.45 -508.22,-1477.08l0 -3067.58zm8768.69 4631.48c743.45,0 1115.85,-355.62 1115.85,-1066.86l378.04 0 0 1512.08 -3917.45 0 0 -270.21c399.03,-5.61 599.24,-162.42 599.24,-467.62l0 -4347.28c0,-306.61 -200.21,-462.03 -599.24,-467.62l0 -268.82 2087.53 0 0 268.82c-427.02,5.59 -639.83,161.01 -639.83,467.62l0 4320.67c0,212.81 163.81,319.22 492.83,319.22l483.03 0zm6730.15 -5376.33l0 1545.69 -378.02 0c0,-733.64 -247.82,-1100.47 -742.04,-1100.47l-610.45 0 0 4639.88c0,306.62 200.22,462.03 599.24,467.64l0 268.81 -2046.92 0 0 -268.81c399.03,-5.61 599.23,-161.02 599.23,-467.64l0 -4639.88 -602.03 0c-488.63,0 -733.65,366.83 -733.65,1100.47l-378.02 0 0 -1545.69 4292.66 0zm2713.31 5085.1c0,301.03 210.01,456.43 631.44,467.64l0 268.81 -2087.53 0 0 -268.81c404.64,-11.21 607.65,-166.61 607.65,-467.64l0 -4348.66c0,-301.01 -203.01,-456.43 -607.65,-467.62l0 -268.82 2087.53 0 0 268.82c-421.43,11.19 -631.44,166.61 -631.44,467.62l0 4348.66zm3001.75 -5085.1l2338.12 4742.08 2077.72 -4742.08 1099.08 0 0 268.82c-267.43,5.59 -401.82,295.41 -401.82,869.44l0 3946.84c0,306.62 134.39,462.03 401.82,467.64l0 268.81 -1684.31 0 0 -268.81c256.23,-11.21 401.83,-147.02 434.04,-410.24l0 -3297.19 -1822.92 3976.24 -558.63 0 -1969.92 -3944.04 0 3207.59c0,301.03 131.61,456.43 393.41,467.64l0 268.81 -1332.86 0 0 -268.81c267.41,-5.61 401.83,-161.02 401.83,-467.64l0 -3946.84c0,-574.03 -134.42,-863.85 -401.83,-869.44l0 -268.82 1026.27 0zm8315.03 3032.58l0 2007.73c0,224 127.41,336.02 383.63,336.02l1176.07 0c735.05,0 1103.26,-366.83 1103.26,-1099.06l378.02 0 0 1544.28 -4497.06 0 0 -270.21c404.62,-11.21 607.63,-166.61 607.63,-467.62l0 -4345.87c0,-301.02 -203.01,-456.44 -607.63,-467.64l0 -270.21 4236.65 0 0 1544.3 -378.02 0c0,-732.25 -378.02,-1099.08 -1135.48,-1099.08l-1267.07 0 0 2142.14 1331.49 0c299.62,0 452.23,-147.01 457.81,-442.42l319.23 0 0 1289.48 -319.23 0c-5.58,-267.43 -158.19,-401.84 -457.81,-401.84l-1331.49 0zm6534.14 2402.55c596.44,-5.61 1068.27,-240.82 1418.29,-705.65 354.23,-469.02 532.03,-1057.06 532.03,-1761.3 0,-743.45 -177.8,-1366.49 -532.03,-1869.11 -344.43,-491.43 -816.25,-737.85 -1418.29,-737.85l-687.44 0 0 4697.29c0,250.62 183.41,376.62 548.85,376.62l138.59 0zm37.8 -5435.13c929.67,26.61 1631.1,292.62 2107.13,795.24 474.65,508.24 712.64,1225.08 712.64,2147.74 0,875.06 -237.99,1566.7 -712.64,2074.92 -481.62,513.83 -1183.06,781.25 -2107.13,803.65l-2172.92 0 0 -270.21c399.02,-5.61 599.24,-161.02 599.24,-467.62l0 -4345.87c0,-306.62 -200.22,-462.02 -599.24,-467.64l0 -270.21 2172.92 0zm5787.9 5085.1c0,301.03 210.01,456.43 631.44,467.64l0 268.81 -2087.51 0 0 -268.81c404.62,-11.21 607.63,-166.61 607.63,-467.64l0 -4348.66c0,-301.01 -203.01,-456.43 -607.63,-467.62l0 -268.82 2087.51 0 0 268.82c-421.43,11.19 -631.44,166.61 -631.44,467.62l0 4348.66zm3297.16 -1531.69l1698.31 0 -844.25 -2542.55 -854.06 2542.55zm-172.21 436.82l-287.01 781.26c-32.2,114.81 -49.01,217.01 -49.01,303.83 0,308.01 189.02,466.21 565.64,477.42l0 268.81 -1698.3 0 0 -268.81c170.79,-5.61 345.82,-224.02 525.02,-656.64l1855.11 -4896.1 533.44 0 1869.11 4896.1c180.61,432.62 355.62,651.03 525.03,656.64l0 268.81 -2100.13 0 0 -268.81c406.03,0 607.64,-159.62 607.64,-477.42 0,-81.22 -16.8,-183.42 -49.01,-303.83l-254.8 -781.26 -2042.73 0z"/>
  <polygon class="fil0" points="2684.56,61213.6 124315.44,61213.6 124315.44,62998.8 2684.56,62998.8 "/>
  <polygon class="fil0" points="2684.56,87863.94 124315.44,87863.94 124315.44,89649.13 2684.56,89649.13 "/>
 </g>
</svg>
